<svg width="32" height="29" viewBox="0 0 32 29" fill="none" xmlns="http://www.w3.org/2000/svg">
<path id="Shape" fill-rule="evenodd" clip-rule="evenodd" d="M9.22456 3.62237L10.0906 2.64807L10.0906 2.64806C10.7935 1.85732 11.1449 1.46195 11.5678 1.17826C11.9426 0.92684 12.3572 0.740652 12.7941 0.627583C13.287 0.5 13.816 0.5 14.874 0.5H17.126C18.184 0.5 18.713 0.5 19.2059 0.627583C19.6428 0.740652 20.0574 0.92684 20.4322 1.17826C20.8551 1.46195 21.2065 1.85732 21.9094 2.64806L21.9094 2.64807L22.7754 3.62237C22.806 3.65675 22.8213 3.67394 22.8361 3.69027C23.5839 4.51306 24.6404 4.98749 25.7521 4.99976C25.7742 5 25.7972 5 25.8432 5C25.9888 5 26.0616 5 26.1231 5.00126C29.3404 5.06731 31.9327 7.65961 31.9987 10.8769C32 10.9384 32 11.0112 32 11.1568V19.4C32 22.7603 32 24.4405 31.346 25.7239C30.7708 26.8529 29.8529 27.7708 28.7239 28.346C27.4405 29 25.7603 29 22.4 29H9.6C6.23969 29 4.55953 29 3.27606 28.346C2.14708 27.7708 1.2292 26.8529 0.653961 25.7239C0 24.4405 0 22.7603 0 19.4V11.1568C0 11.0112 0 10.9384 0.0012637 10.8769C0.0673049 7.65961 2.65961 5.06731 5.87686 5.00126C5.93843 5 6.01121 5 6.1568 5C6.2028 5 6.2258 5 6.24785 4.99976C7.35961 4.98749 8.4161 4.51306 9.16388 3.69027C9.17866 3.67401 9.19388 3.65689 9.2242 3.62277L9.22423 3.62274L9.22456 3.62237ZM11 16C11 13.2386 13.2386 11 16 11C18.7614 11 21 13.2386 21 16C21 18.7614 18.7614 21 16 21C13.2386 21 11 18.7614 11 16ZM16 9C12.134 9 9 12.134 9 16C9 19.866 12.134 23 16 23C19.866 23 23 19.866 23 16C23 12.134 19.866 9 16 9Z" fill="#C8C9CC"/>
</svg>
