<svg width="24.000000" height="24.000000" viewBox="0 0 24 24" fill="none" xmlns="http://www.w3.org/2000/svg" xmlns:xlink="http://www.w3.org/1999/xlink">
	
	<defs>
		<clipPath id="clip3_8605">
			<rect width="24.000000" height="24.000000" fill="white" fill-opacity="0"/>
		</clipPath>
		<clipPath id="clip3_8604">
			<rect width="24.000000" height="24.000000" fill="white" fill-opacity="0"/>
		</clipPath>
	</defs>
	<g clip-path="url(#clip3_8604)">
		<g clip-path="url(#clip3_8605)"/>
		<path d="M18.0898 4.0376C17.6387 4.00073 17.0566 4 16.1992 4L15 4C14.4473 4 14 3.55225 14 3C14 2.44775 14.4473 2 15 2L16.2422 2C17.0469 2 17.7109 2 18.252 2.04419C18.8145 2.09009 19.3301 2.18872 19.8164 2.43604C20.5684 2.81946 21.1797 3.4314 21.5645 4.18408C21.8105 4.66943 21.9102 5.18604 21.9551 5.74817C22 6.28931 22 6.95374 22 7.75867L22 16.2413C22 17.0463 22 17.7107 21.9551 18.2518C21.9102 18.814 21.8105 19.3306 21.5645 19.8159C21.1797 20.5686 20.5684 21.1805 19.8164 21.564C19.3301 21.8113 18.8145 21.9099 18.252 21.9558C17.7109 22 17.0469 22 16.2422 22L15 22C14.4473 22 14 21.5522 14 21C14 20.4478 14.4473 20 15 20L16.1992 20C17.0566 20 17.6387 19.9993 18.0898 19.9624C18.5273 19.9266 18.752 19.8617 18.9082 19.782C19.2852 19.5902 19.5898 19.2843 19.7812 18.908C19.8613 18.7516 19.9258 18.5273 19.9629 18.089C20 17.6389 20 17.0566 20 16.2L20 7.80005C20 6.94348 20 6.36108 19.9629 5.91101C19.9258 5.47266 19.8613 5.24841 19.7812 5.09204C19.5898 4.7157 19.2852 4.40979 18.9082 4.21802C18.752 4.13831 18.5273 4.07336 18.0898 4.0376ZM8.70703 6.29285C9.09766 6.68347 9.09766 7.31653 8.70703 7.70715L5.41406 11L15 11C15.5527 11 16 11.4478 16 12C16 12.5522 15.5527 13 15 13L5.41406 13L8.70703 16.2928C9.09766 16.6835 9.09766 17.3165 8.70703 17.7072C8.31641 18.0977 7.68359 18.0977 7.29297 17.7072L2.29297 12.7072C1.90234 12.3165 1.90234 11.6835 2.29297 11.2928L7.29297 6.29285C7.68359 5.90234 8.31641 5.90234 8.70703 6.29285Z" fill="currentColor" fill-opacity="1.000000" fill-rule="evenodd"/>
	</g>
</svg>
