<svg xmlns="http://www.w3.org/2000/svg" width="22" height="22" viewBox="0 0 22 22">
<path d="M7.64639 13.256L8.92681 11.122C9.23362 10.6106 9.38702 10.355 9.5739 10.1273C9.73984 9.92521 9.92521 9.73985 10.1273 9.57391C10.355 9.38703 10.6106 9.23363 11.122 8.92681L13.256 7.64639C14.0621 7.16274 14.4651 6.92092 14.6684 6.97392C14.8436 7.0196 14.9804 7.15641 15.0261 7.33159C15.0791 7.53486 14.8373 7.9379 14.3536 8.74397L13.0732 10.878C12.7664 11.3894 12.613 11.6451 12.4261 11.8727C12.2602 12.0748 12.0748 12.2602 11.8727 12.4261C11.645 12.613 11.3894 12.7664 10.878 13.0732L8.74397 14.3536C7.93789 14.8373 7.53485 15.0791 7.33158 15.0261C7.1564 14.9804 7.01959 14.8436 6.97391 14.6684C6.92091 14.4652 7.16274 14.0621 7.64639 13.256Z"/>
<path fill-rule="evenodd" clip-rule="evenodd" d="M11 0.25C5.06294 0.25 0.25 5.06294 0.25 11C0.25 16.9371 5.06294 21.75 11 21.75C16.9371 21.75 21.75 16.9371 21.75 11C21.75 5.06294 16.9371 0.25 11 0.25ZM2.25 11C2.25 6.16751 6.16751 2.25 11 2.25C15.8325 2.25 19.75 6.16751 19.75 11C19.75 15.8325 15.8325 19.75 11 19.75C6.16751 19.75 2.25 15.8325 2.25 11Z"/>
</svg>