<svg xmlns="http://www.w3.org/2000/svg" width="22" height="24" viewBox="0 0 22 24">
<path fill-rule="evenodd" clip-rule="evenodd" d="M11.7812 21.5C11.9881 21.5 12.1737 21.3726 12.2479 21.1795C13.1924 18.7239 15.7243 17.2621 18.3231 17.672C18.5274 17.7042 18.7305 17.6073 18.834 17.4281L19.617 16.0719C19.7204 15.8927 19.7028 15.6684 19.5728 15.5075C17.9184 13.4618 17.9184 10.5382 19.5728 8.49251C19.7028 8.33164 19.7204 8.10727 19.617 7.9281L18.834 6.5719C18.7305 6.39273 18.5274 6.29578 18.3231 6.32801C15.7242 6.73787 13.1924 5.27609 12.2479 2.82051C12.1736 2.62741 11.9881 2.5 11.7812 2.5L10.2152 2.5C10.0084 2.5 9.82283 2.62741 9.74857 2.82051C8.80411 5.2761 6.27223 6.73787 3.67341 6.32801C3.46905 6.29578 3.26595 6.39273 3.1625 6.5719L2.3795 7.9281C2.27606 8.10727 2.29364 8.33164 2.42374 8.49251C4.07811 10.5382 4.07811 13.4618 2.42374 15.5075C2.29365 15.6684 2.27606 15.8927 2.3795 16.0719L0.647455 17.0719C0.130239 16.1761 0.218162 15.0542 0.868623 14.2499C1.92981 12.9377 1.92981 11.0623 0.868623 9.75013C0.218161 8.9458 0.130236 7.82395 0.647452 6.9281L1.43045 5.5719C1.94767 4.67606 2.96319 4.19128 3.98499 4.35243C5.65199 4.61533 7.27606 3.67768 7.88187 2.10256C8.25321 1.13707 9.18081 0.5 10.2152 0.5L11.7812 0.5C12.8157 0.5 13.7433 1.13707 14.1146 2.10255C14.7204 3.67768 16.3445 4.61533 18.0115 4.35242C19.0333 4.19127 20.0488 4.67606 20.566 5.5719L21.349 6.9281C21.8662 7.82394 21.7783 8.9458 21.1279 9.75013C20.0667 11.0623 20.0667 12.9377 21.1279 14.2499C21.7783 15.0542 21.8663 16.1761 21.349 17.0719L20.566 18.4281C20.0488 19.3239 19.0333 19.8087 18.0115 19.6476C16.3445 19.3847 14.7204 20.3223 14.1146 21.8975C13.7433 22.8629 12.8157 23.5 11.7812 23.5H10.2152C9.18081 23.5 8.25322 22.8629 7.88188 21.8974C7.27606 20.3223 5.652 19.3847 3.98499 19.6476C2.96319 19.8087 1.94767 19.3239 1.43046 18.4281L0.647455 17.0719L2.3795 16.0719L3.16251 17.4281C3.26595 17.6073 3.46905 17.7042 3.67341 17.672C6.27224 17.2621 8.80412 18.7239 9.74857 21.1795C9.82284 21.3726 10.0084 21.5 10.2152 21.5H11.7812ZM6.49825 12C6.49825 9.51472 8.51297 7.5 10.9982 7.5C13.4835 7.5 15.4982 9.51472 15.4982 12C15.4982 14.4853 13.4835 16.5 10.9982 16.5C8.51297 16.5 6.49825 14.4853 6.49825 12ZM8.49825 12C8.49825 10.6193 9.61754 9.5 10.9982 9.5C12.379 9.5 13.4982 10.6193 13.4982 12C13.4982 13.3807 12.379 14.5 10.9982 14.5C9.61754 14.5 8.49825 13.3807 8.49825 12Z"/>
</svg>